# xmcd
#
# Track frame offsets:
#	150
#	14043
#	27927
#	42043
#	55370
#	68025
#	81917
#	92904
#	105522
#	117293
#	129691
#	141876
#	153545
#	165328
#	177594
#	189959
#	202950
#	215023
#	226714
#	240210
#
# Disc length: 3365 seconds
#
# Revision: 0
# Processed by: cddbd v1.5.2PL0 Copyright (c) Steve Scherf et al.
# Submitted via: dBpowerAMP V4.0
#
DISCID=0c0d2314
DTITLE=Bob Wills and His Texas Playboys - The King of Western Swing - CD 1
DYEAR=2006
DGENRE=Country
TTITLE0=Osage Stomp
TTITLE1=Get With It
TTITLE2=Maiden's Prayer
TTITLE3=Spanish Two-Step
TTITLE4=Steel Guitar Rag
TTITLE5=Red Hot Gal of Mine
TTITLE6=Blue Yodel No. 1
TTITLE7=Black Rider
TTITLE8=San Antonio Rose
TTITLE9=Silver Bells
TTITLE10=Beaumont Rag
TTITLE11=Whoa Baby
TTITLE12=That's What I Like About the South
TTITLE13=Don't Let the Deal Go Down
TTITLE14=Lone Star Rag
TTITLE15=Corrine Corrina
TTITLE16=Time Changes Everything
TTITLE17=New San Antonio Rose
TTITLE18=Cherokee Maiden
TTITLE19=Take Me Back To Tulsa
EXTD=
EXTT0=
EXTT1=
EXTT2=
EXTT3=
EXTT4=
EXTT5=
EXTT6=
EXTT7=
EXTT8=
EXTT9=
EXTT10=
EXTT11=
EXTT12=
EXTT13=
EXTT14=
EXTT15=
EXTT16=
EXTT17=
EXTT18=
EXTT19=
PLAYORDER=
